<svg width="32" height="32" viewBox="0 0 32 32" fill="none"
     xmlns="http://www.w3.org/2000/svg">
    <path d="M24.3808 8.38095H25.9046M6.85696 0.761902H25.1427C28.509 0.761902 31.2379 3.49083 31.2379 6.85714V25.1429C31.2379 28.5092 28.509 31.2381 25.1427 31.2381H6.85696C3.49065 31.2381 0.761719 28.5092 0.761719 25.1429V6.85714C0.761719 3.49083 3.49065 0.761902 6.85696 0.761902ZM15.9998 22.0952C12.6335 22.0952 9.90458 19.3663 9.90458 16C9.90458 12.6337 12.6335 9.90476 15.9998 9.90476C19.3661 9.90476 22.0951 12.6337 22.0951 16C22.0951 19.3663 19.3661 22.0952 15.9998 22.0952Z"
          stroke="#333333"/>
</svg>