
<svg width="32" height="32" viewBox="0 0 32 32" fill="none"
     xmlns="http://www.w3.org/2000/svg">
    <path d="M3.8089 25.1437L4.25611 25.3673L4.39443 25.0907L4.20866 24.8434L3.8089 25.1437ZM6.85608 28.1909L7.1564 27.7912L6.90911 27.6054L6.63247 27.7437L6.85608 28.1909ZM0.761719 31.2381L0.314505 31.0145C0.218258 31.207 0.255985 31.4395 0.408165 31.5917C0.560345 31.7438 0.792831 31.7816 0.985326 31.6853L0.761719 31.2381ZM9.90458 9.90478L9.60458 9.50478C9.47867 9.5992 9.40458 9.7474 9.40458 9.90478H9.90458ZM22.0951 22.0953V22.5953C22.2425 22.5953 22.3825 22.5301 22.4775 22.4173L22.0951 22.0953ZM10.8516 9.19454L10.5516 8.79454L10.8516 9.19454ZM13.2779 10.2246L12.7817 10.2866L13.2779 10.2246ZM13.6217 12.9748L14.1178 12.9128L13.6217 12.9748ZM13.1871 14.2413L12.8336 13.8877V13.8877L13.1871 14.2413ZM22.7706 21.2931L22.3881 20.971L22.7706 21.2931ZM21.8256 18.8038L21.898 18.3091L21.8256 18.8038ZM19.0426 18.3965L19.115 17.9018L19.0426 18.3965ZM17.7445 18.8268L18.098 19.1803L17.7445 18.8268ZM0.261737 16C0.261737 19.5428 1.43297 22.8135 3.40914 25.444L4.20866 24.8434C2.35812 22.3801 1.26174 19.3188 1.26174 16H0.261737ZM15.9998 0.261902C7.30792 0.261902 0.261737 7.30809 0.261737 16H1.26174C1.26174 7.86037 7.86021 1.2619 15.9998 1.2619V0.261902ZM31.7379 16C31.7379 7.30809 24.6917 0.261902 15.9998 0.261902V1.2619C24.1395 1.2619 30.7379 7.86037 30.7379 16H31.7379ZM15.9998 31.7381C24.6917 31.7381 31.7379 24.6919 31.7379 16H30.7379C30.7379 24.1396 24.1395 30.7381 15.9998 30.7381V31.7381ZM6.55576 28.5907C9.18631 30.5669 12.457 31.7381 15.9998 31.7381V30.7381C12.681 30.7381 9.61971 29.6417 7.1564 27.7912L6.55576 28.5907ZM0.985326 31.6853L7.07969 28.6381L6.63247 27.7437L0.538112 30.7909L0.985326 31.6853ZM3.36169 24.9201L0.314505 31.0145L1.20893 31.4617L4.25611 25.3673L3.36169 24.9201ZM9.40458 9.90478V11.4286H10.4046V9.90478H9.40458ZM20.5712 22.5953H22.0951V21.5953H20.5712V22.5953ZM9.40458 11.4286C9.40458 17.5958 14.4041 22.5953 20.5712 22.5953V21.5953C14.9563 21.5953 10.4046 17.0435 10.4046 11.4286H9.40458ZM10.2046 10.3048L11.1516 9.59454L10.5516 8.79454L9.60458 9.50478L10.2046 10.3048ZM12.7817 10.2866L13.1255 13.0368L14.1178 12.9128L13.774 10.1626L12.7817 10.2866ZM12.8336 13.8877L11.0748 15.6465L11.7819 16.3536L13.5407 14.5948L12.8336 13.8877ZM13.1255 13.0368C13.1647 13.3503 13.057 13.6643 12.8336 13.8877L13.5407 14.5948C13.9823 14.1532 14.1953 13.5325 14.1178 12.9128L13.1255 13.0368ZM11.1516 9.59454C11.7804 9.12288 12.6842 9.50657 12.7817 10.2866L13.774 10.1626C13.5813 8.62064 11.7947 7.86218 10.5516 8.79454L11.1516 9.59454ZM22.4775 22.4173L23.153 21.6152L22.3881 20.971L21.7126 21.7732L22.4775 22.4173ZM21.898 18.3091L19.115 17.9018L18.9702 18.8913L21.7532 19.2985L21.898 18.3091ZM17.3909 18.4732L15.6463 20.2179L16.3534 20.925L18.098 19.1803L17.3909 18.4732ZM19.115 17.9018C18.4823 17.8092 17.8431 18.0211 17.3909 18.4732L18.098 19.1803C18.3268 18.9516 18.6502 18.8444 18.9702 18.8913L19.115 17.9018ZM23.153 21.6152C24.1746 20.4021 23.4672 18.5387 21.898 18.3091L21.7532 19.2985C22.5471 19.4147 22.9049 20.3573 22.3881 20.971L23.153 21.6152Z"
          fill="#333333"/>
</svg>